name Walk3.mot
datacolumns 19
datarows 10
range 2.09000000 2.13500000
endheader

                time	   L_ground_force_vx	   L_ground_force_vy	   L_ground_force_vz	   L_ground_force_px	   L_ground_force_py	   L_ground_force_pz	   R_ground_force_vx	   R_ground_force_vy	   R_ground_force_vz	   R_ground_force_px	   R_ground_force_py	   R_ground_force_pz	   L_ground_torque_x	   L_ground_torque_y	   L_ground_torque_z	   R_ground_torque_x	   R_ground_torque_y	   R_ground_torque_z	
          2.09000000	          0.00000000	          0.00000000	          0.00000000	         -0.00000000	          0.00000000	         -0.00000000	         11.06421841	         38.61348827	          2.40944465	          0.24298520	          0.00000000	          0.04849567	          0.00000000	          0.00000000	          0.00000000	          0.00000000	         -3.10064870	          0.00000000	
          2.09500000	          0.00000000	          0.00000000	         -0.00000000	         -0.00000000	          0.00000000	         -0.00000000	          7.36569139	         23.60986768	          2.35771213	          0.20147497	          0.00000000	          0.04013066	          0.00000000	         -0.00000000	          0.00000000	          0.00000000	         -2.22859786	          0.00000000	
          2.10000000	          0.00000000	          0.00000000	         -0.00000000	         -0.00000000	          0.00000000	         -0.00000000	          4.41194828	         12.12807538	          2.13894047	          0.15909399	          0.00000000	          0.03162652	          0.00000000	         -0.00000000	          0.00000000	          0.00000000	         -1.49363650	          0.00000000	
          2.10500000	          0.00000000	          0.00000000	         -0.00000000	         -0.00000000	          0.00000000	         -0.00000000	          2.16883884	          3.80584847	          1.82948319	          0.11933374	          0.00000000	          0.02367175	          0.00000000	         -0.00000000	          0.00000000	          0.00000000	         -0.90419204	          0.00000000	
          2.11000000	          0.00000000	          0.00000000	         -0.00000000	         -0.00000000	          0.00000000	         -0.00000000	          0.55884729	         -1.83203102	          1.48634422	          0.08439840	          0.00000000	          0.01669836	          0.00000000	         -0.00000000	          0.00000000	          0.00000000	         -0.45468206	          0.00000000	
          2.11500000	          0.00000000	          0.00000000	         -0.00000000	         -0.00000000	          0.00000000	         -0.00000000	         -0.51780717	         -5.30260242	          1.14874400	          0.05532015	          0.00000000	          0.01090583	          0.00000000	         -0.00000000	          0.00000000	          0.00000000	         -0.13046017	          0.00000000	
          2.12000000	          0.00000000	          0.00000000	         -0.00000000	         -0.00000000	          0.00000000	         -0.00000000	         -1.16729254	         -7.10884089	          0.84139575	          0.03229768	          0.00000000	          0.00632867	          0.00000000	         -0.00000000	          0.00000000	          0.00000000	          0.08777487	          0.00000000	
          2.12500000	          0.00000000	          0.00000000	         -0.00000000	         -0.00000000	          0.00000000	         -0.00000000	         -1.49147619	         -7.70492327	          0.57775505	          0.01497946	          0.00000000	          0.00289290	          0.00000000	         -0.00000000	          0.00000000	          0.00000000	          0.22078284	          0.00000000	
          2.13000000	          0.00000000	          0.00000000	         -0.00000000	         -0.00000000	          0.00000000	         -0.00000000	         -1.58141116	         -7.47781309	          0.36299393	          0.00268893	          0.00000000	          0.00046082	          0.00000000	         -0.00000000	          0.00000000	          0.00000000	          0.28861702	          0.00000000	
          2.13500000	          0.00000000	          0.00000000	         -0.00000000	         -0.00000000	          0.00000000	         -0.00000000	         -1.51401421	         -6.74076713	          0.19656336	         -0.00540542	          0.00000000	         -0.00113527	          0.00000000	         -0.00000000	          0.00000000	          0.00000000	          0.30929165	          0.00000000	
